<svg fill="none" height="470" viewBox="0 0 1164 470" width="1164" xmlns="http://www.w3.org/2000/svg"><g fill="#000"><path d="m18.3892 17.7385h18.9364l39.078 133.5885 35.9794-133.5885h18.936v144.2615h-18.075v-132.8996l-37.7011 132.8996h-14.6327l-40.7995-140.1299 2.5822 140.1299h-4.3037zm214.4618 144.2615h-4.303l35.29-144.2615h14.805l31.848 144.2615h-18.42l-8.263-39.939-41.66-1.205zm9.813-42.865 40.111-1.377-19.109-90.3791zm165.335 42.865v-144.2615h18.248l54.916 131.3505-2.583-131.3505h4.304v144.2615h-14.977l-58.187-139.4413 2.583 139.4413zm176.636 0h-4.303l35.29-144.2615h14.805l31.848 144.2615h-18.42l-8.263-39.939-41.661-1.205zm9.813-42.865 40.111-1.377-19.109-90.3791zm147.894-97.0927v-4.3038h83.148v4.3038l-32.88-2.5823v142.54h-18.076v-142.54zm241.47 139.9577h-63.179v-144.2615h63.179v4.3038l-45.104-2.5823v66.2777l34.43-1.2051v4.1316l-34.43-1.0329v72.6477l45.104-2.583zm163.708 0h-63.18v-144.2615h63.18v4.3038l-45.11-2.5823v66.2777l34.43-1.2051v4.1316l-34.43-1.0329v72.6477l45.11-2.583z"/><path d="m7.3774 399.015c0-36.028 0-43.701 0-85.233 0-23.518 15.6789-29.023 36.3617-29.023 21.8504 0 34.1934 8.173 34.1934 30.858v13.177h-17.3469v-16.346c0-12.51-.5004-26.021-16.8465-26.021-14.6781 0-19.0148 12.01-19.0148 25.52v88.736c0 13.678 4.1699 25.687 19.0148 25.687 16.1793 0 16.6797-13.511 16.6797-26.02v-16.347l17.3469-.166v13.343c0 22.685-12.1762 30.858-34.0266 30.858-20.8496 0-36.3617-5.504-36.3617-29.023zm164.4736 0c0-36.028 0-43.701 0-85.233 0-22.684 15.679-29.023 35.194-29.023s35.194 6.339 35.194 29.023v85.233c0 22.685-15.679 29.023-35.194 29.023s-35.194-6.338-35.194-29.023zm17.347-87.068v88.736c0 14.512 4.337 25.687 17.847 25.687 13.511 0 17.847-10.341 17.847-25.687 0-36.695 0-46.036-.166-88.569 0-14.511-4.337-25.687-17.681-25.687-13.51 0-17.847 11.176-17.847 25.52zm150.586-25.52h18.348l37.863 129.435 34.86-129.435h18.348v139.776h-17.514v-128.767l-36.528 128.767h-14.178l-39.531-135.773 2.502 135.773h-4.17zm208.294 0h18.348l37.863 129.435 34.86-129.435h18.348v139.776h-17.514v-128.767l-36.528 128.767h-14.178l-39.531-135.773 2.502 135.773h-4.17zm207.627 0h17.347v111.087c0 16.68 4.17 28.856 21.017 28.856 21.516 0 30.023-10.341 29.69-30.524l-2.502-109.419h4.169v109.753c0 22.017-9.34 31.858-32.358 31.858-25.02 0-37.363-6.505-37.363-31.858zm168.403 139.776v-139.776h17.68l53.208 127.266-2.502-127.266h4.17v139.776h-14.511l-56.377-135.105 2.502 135.105zm233.022 0h-61.21v-139.776h61.21v4.17l-43.7-2.502v64.217l33.36-1.167v4.003l-33.36-1.001v70.388l43.7-2.502z"/></g></svg>